<svg width="806" height="522" viewBox="0 0 806 522" fill="none" xmlns="http://www.w3.org/2000/svg">
<path d="M791.273 144.668H627.529C619.519 144.668 612.922 138.183 612.922 130.048V34.5459C612.922 26.5284 619.401 19.9258 627.529 19.9258H791.273C799.284 19.9258 805.881 26.4105 805.881 34.5459V130.048C805.763 138.183 799.284 144.668 791.273 144.668Z" fill="#2847E0"/>
<path d="M300.866 138.537H124.046C115.211 138.537 108.025 131.345 108.025 122.502V16.0349C108.025 7.19214 115.211 0 124.046 0H300.866C309.702 0 316.887 7.19214 316.887 16.0349V122.502C316.887 131.345 309.702 138.537 300.866 138.537Z" fill="#172D51"/>
<path d="M192.723 307.729H16.021C7.18589 307.729 0 300.537 0 291.694V184.52C0 175.677 7.18589 168.485 16.021 168.485H192.723C201.558 168.485 208.744 175.677 208.744 184.52V291.694C208.744 300.655 201.558 307.729 192.723 307.729Z" fill="#2847E0"/>
<path fill-rule="evenodd" clip-rule="evenodd" d="M470.028 334.729C469.439 332.253 469.321 328.952 469.321 324.354C462.37 324.472 462.842 334.729 469.556 334.729H470.028ZM469.203 320.699H493.117C493.117 332.018 493.234 337.088 489.111 339.446H473.208C472.03 338.738 471.088 337.795 470.617 336.38H469.556C460.839 336.38 460.368 323.057 469.321 322.585L469.203 320.699Z" fill="#4C4C4C"/>
<path d="M104.961 384.956V413.725C120.746 421.507 162.684 412.192 162.684 412.192L195.433 406.415L197.553 492.838L197.671 497.437L197.906 508.755L198.142 520.664H245.734C245.616 515.24 239.137 511.113 233.836 508.873C231.833 508.048 229.948 507.458 228.535 507.223C223.705 506.279 222.645 497.672 222.645 497.672V497.437L223.116 492.838L232.422 412.192L251.624 428.817L253.626 424.808L260.223 430.467L260.341 430.585L268.234 437.424L277.894 445.795L308.64 409.598C304.87 405.354 297.92 406.651 291.559 409.244C284.255 412.192 277.658 416.908 277.658 416.908L272.946 411.603L272.593 411.249L265.878 403.821L208.626 339.799L104.961 384.956Z" fill="#191919"/>
<path d="M266.113 403.821L253.744 424.808L260.459 430.585L272.71 411.249L266.113 403.821Z" fill="#FAA895"/>
<path d="M197.437 492.838L197.554 497.437H222.764L223.235 492.838H197.437Z" fill="#FAA895"/>
<path d="M197.789 508.755L198.025 520.664H245.734C245.616 515.24 239.137 511.113 233.836 508.873C228.771 510.17 221.349 512.764 221.349 516.773H206.86C206.86 516.773 203.679 509.699 197.789 508.755Z" fill="#6B3903"/>
<path d="M269.059 438.013L278.247 445.559L309.229 409.952C295.917 403.114 287.436 422.332 290.381 425.633L280.957 436.48C280.839 436.48 273.535 434.24 269.059 438.013Z" fill="#6B3903"/>
<path d="M156.676 357.485C157.618 356.424 159.739 336.144 158.914 334.847" stroke="black" stroke-width="0.88" stroke-miterlimit="10"/>
<path d="M156.088 520.546C160.317 520.546 163.745 517.115 163.745 512.882C163.745 508.65 160.317 505.218 156.088 505.218C151.859 505.218 148.431 508.65 148.431 512.882C148.431 517.115 151.859 520.546 156.088 520.546Z" fill="#6B3903"/>
<path d="M137.357 520.546C141.586 520.546 145.014 517.115 145.014 512.882C145.014 508.65 141.586 505.218 137.357 505.218C133.128 505.218 129.7 508.65 129.7 512.882C129.7 517.115 133.128 520.546 137.357 520.546Z" fill="#6B3903"/>
<path d="M118.627 520.546C122.856 520.546 126.284 517.115 126.284 512.882C126.284 508.65 122.856 505.218 118.627 505.218C114.398 505.218 110.97 508.65 110.97 512.882C110.97 517.115 114.398 520.546 118.627 520.546Z" fill="#6B3903"/>
<path d="M100.015 520.546C104.243 520.546 107.672 517.115 107.672 512.882C107.672 508.65 104.243 505.218 100.015 505.218C95.7856 505.218 92.3574 508.65 92.3574 512.882C92.3574 517.115 95.7856 520.546 100.015 520.546Z" fill="#6B3903"/>
<path d="M175.759 433.651L168.338 438.485H135.589V498.026H160.563V505.336H95.7723V498.026H121.1V437.777H89.1754L82.6963 433.651H175.759Z" fill="#331A02"/>
<path d="M82.6963 433.651H175.759V424.454C175.759 418.087 170.694 413.017 164.333 413.017H94.123C87.7618 413.017 82.6963 418.087 82.6963 424.454V433.651Z" fill="#6B3903"/>
<path d="M194.961 313.035C202.382 313.035 225.118 315.157 206.388 287.804C206.623 284.031 208.272 272.83 199.673 267.878C191.073 262.926 194.254 259.978 194.961 257.62C195.668 255.262 198.024 220.245 151.963 222.367C147.251 223.31 129.345 226.611 130.995 252.786C132.644 278.961 132.644 287.568 132.644 287.568L194.961 313.035Z" fill="#021D4E"/>
<path d="M253.98 302.541C253.98 302.541 270.001 299.948 271.886 292.755C271.886 292.755 274.713 289.336 271.886 287.214C271.886 287.214 270.825 284.266 268.705 284.266C266.585 284.266 245.145 287.921 242.2 287.214C239.255 286.507 238.548 305.017 238.548 305.017L253.98 302.541Z" fill="#E08F82"/>
<path d="M256.924 291.105L271.531 287.332" stroke="#BC5E63" stroke-miterlimit="10" stroke-linecap="round"/>
<path d="M271.414 293.109C271.414 293.109 271.296 289.572 270 290.279C268.469 291.105 266.938 292.638 266.231 292.991C264.582 293.699 261.754 295.467 260.93 295.703" stroke="#BC5E63" stroke-miterlimit="10" stroke-linecap="round"/>
<path d="M263.17 292.991C262.463 292.52 261.52 292.52 260.931 293.109C259.4 294.642 256.455 297.236 255.041 297.236C253.156 297.354 249.387 297 247.738 295.703C246.088 294.406 243.85 293.699 243.85 293.699C243.85 293.699 244.793 289.69 244.557 287.803C244.321 285.917 245.264 283.795 246.088 282.969C246.913 282.144 249.151 277.546 246.795 275.306C246.795 275.306 245.028 274.362 244.675 275.306C244.321 276.249 241.494 281.319 240.198 283.087C239.02 284.856 228.654 296.528 227.24 300.065C225.944 303.603 230.656 310.323 230.656 310.323L238.431 307.493C238.431 307.493 250.565 303.603 251.625 303.603C252.685 303.603 258.222 302.541 263.405 295.349C264.112 294.642 263.994 293.581 263.17 292.991Z" fill="#FAA895"/>
<path d="M238.548 307.611C237.841 308.908 227.003 328.127 220.642 339.681C214.045 351.707 204.974 349.114 201.204 347.227C197.67 345.459 180.354 329.07 178.115 326.948C177.998 326.83 177.88 326.712 177.88 326.712C173.286 339.799 159.856 335.79 159.856 335.79C158.443 343.808 162.801 359.725 162.801 359.725L105.078 384.839L115.681 331.31H84.581C75.2747 327.066 80.9291 314.332 80.9291 314.332C80.9291 314.332 102.487 291.459 113.325 284.502C124.162 277.546 127.107 278.371 127.107 278.371C127.107 278.371 166.453 287.45 175.288 287.568C184.123 287.686 193.783 302.07 193.783 302.07L206.741 320.699L227.239 299.948C229.712 306.314 238.548 307.611 238.548 307.611Z" fill="#FF66F4"/>
<path d="M238.547 307.729C237.84 308.908 227.002 328.127 220.641 339.799C214.044 351.825 204.973 349.231 201.204 347.345C197.669 345.576 180.353 329.188 178.114 327.066C179.999 317.397 172.46 313.035 172.46 313.035C173.756 310.677 179.057 308.083 179.057 308.083C179.057 308.083 200.497 335.672 203.206 338.738C205.916 341.803 209.921 340.978 213.573 338.974C217.107 337.205 237.486 309.144 238.547 307.729Z" fill="#DB56D8"/>
<path d="M133.47 314.332C133.47 314.332 126.048 321.524 130.878 330.367L148.548 357.603C148.548 357.603 153.732 358.192 153.967 340.86L154.556 357.603C154.556 357.603 157.501 357.249 157.855 352.769C158.208 348.288 158.915 334.965 158.915 334.965C158.915 334.965 151.965 314.921 133.47 314.332Z" fill="#FAA895"/>
<path d="M133.468 314.332L102.957 313.035" stroke="black" stroke-miterlimit="10" stroke-linecap="round"/>
<path d="M128.993 306.314C128.993 306.314 117.566 309.616 114.975 313.506" stroke="black" stroke-miterlimit="10" stroke-linecap="round"/>
<path d="M93.1799 388.022H134.646C142.303 388.022 148.547 381.773 148.547 374.109V344.279C148.547 336.616 142.303 330.367 134.646 330.367H93.1799C85.5228 330.367 79.2793 336.616 79.2793 344.279V373.991C79.2793 381.773 85.5228 388.022 93.1799 388.022Z" fill="#6B3903"/>
<path d="M100.838 382.009H109.084C115.092 382.009 119.804 377.175 119.804 371.279C119.804 365.266 114.974 360.55 109.084 360.55H100.838C94.8304 360.55 90.1183 365.384 90.1183 371.279C90.0005 377.175 94.8304 382.009 100.838 382.009Z" fill="#824C17"/>
<path d="M101.075 430.232C104.02 430.232 106.376 427.873 106.376 424.926V373.52C106.376 370.572 104.02 368.214 101.075 368.214C98.1295 368.214 95.7734 370.572 95.7734 373.52V424.926C95.7734 427.873 98.1295 430.232 101.075 430.232Z" fill="#331A02"/>
<path d="M175.171 288.275C180.355 305.607 153.967 299.594 147.37 295.703C140.773 291.812 127.108 278.489 127.108 278.489C138.889 277.9 141.245 278.725 143.836 280.022C146.428 281.319 149.255 281.201 150.433 280.022C151.729 278.843 152.436 265.638 152.436 265.638C143.483 266.109 145.25 262.218 145.25 260.214C145.25 258.092 147.37 258.092 147.37 258.092H149.491C158.679 258.092 156.677 238.284 156.677 238.284C173.758 237.105 177.056 244.887 177.645 254.201C178.823 274.716 166.101 271.415 166.101 271.415L165.158 283.795C171.048 287.686 175.171 288.275 175.171 288.275Z" fill="#FAA895"/>
<path d="M165.04 247.598C165.04 247.598 160.328 245.122 157.736 249.485" stroke="black" stroke-width="0.9205" stroke-miterlimit="10" stroke-linecap="round" stroke-linejoin="round"/>
<path d="M163.621 256.314C164.505 255.9 164.752 254.561 164.173 253.322C163.594 252.083 162.408 251.415 161.524 251.829C160.64 252.242 160.393 253.582 160.972 254.821C161.551 256.059 162.737 256.728 163.621 256.314Z" fill="black"/>
<path d="M173.651 251.053C174.358 250.722 174.552 249.64 174.083 248.638C173.615 247.635 172.661 247.09 171.954 247.422C171.247 247.753 171.054 248.834 171.522 249.837C171.991 250.839 172.944 251.384 173.651 251.053Z" fill="black"/>
<path d="M173.522 244.533C173.522 244.533 170.224 242.764 169.281 246.183" stroke="black" stroke-width="0.9477" stroke-miterlimit="10" stroke-linecap="round" stroke-linejoin="round"/>
<path d="M168.691 248.895C168.691 248.895 169.752 254.79 171.519 255.969C173.286 257.031 170.458 258.563 169.398 258.563" stroke="#BC5E63" stroke-miterlimit="10" stroke-linecap="round"/>
<path d="M171.755 263.869C168.692 264.93 167.043 262.808 167.043 262.808L174.464 260.332C174.464 260.332 175.407 262.572 171.755 263.869Z" fill="white"/>
<path d="M157.029 265.638C157.147 265.756 157.501 266.227 158.09 267.052C157.854 266.817 157.736 266.699 157.618 266.463C157.265 265.873 157.147 265.638 157.029 265.638Z" fill="#F99895"/>
<path d="M175.17 288.275C167.631 288.393 163.508 286.507 162.33 286.153C161.152 285.799 163.155 277.074 163.037 274.952C163.037 273.655 159.974 269.293 158.207 267.052C161.152 270.236 166.218 271.415 166.218 271.415L165.275 283.795C171.047 287.686 175.17 288.275 175.17 288.275Z" fill="#E08F82"/>
<path d="M124.044 75.2226L142.657 87.2488L157.028 82.4148L171.754 85.5982L190.131 27.3536L202.5 85.9519L214.869 64.7292L226.885 87.013L238.783 81.2357L244.319 86.1877L262.107 77.6986L268.469 82.0611H290.851" stroke="#FFA401" stroke-width="4" stroke-miterlimit="10" stroke-linecap="round" stroke-linejoin="round"/>
<path d="M672.531 76.8734H644.729V129.223H672.531V76.8734Z" fill="#93C9F9"/>
<path d="M672.531 95.2664H644.729V129.105H672.531V95.2664Z" fill="#0098FF"/>
<path d="M707.869 89.3712H680.068V129.105H707.869V89.3712Z" fill="#93C9F9"/>
<path d="M707.869 112.127H680.068V129.105H707.869V112.127Z" fill="#0098FF"/>
<path d="M743.209 65.9082H715.408V129.105H743.209V65.9082Z" fill="#93C9F9"/>
<path d="M743.209 93.4978H715.408V129.105H743.209V93.4978Z" fill="#0098FF"/>
<path d="M778.549 65.4366H750.748V129.105H778.549V65.4366Z" fill="#0098FF"/>
<path d="M52.6576 194.306H31.9246C29.8041 194.306 28.0371 192.537 28.0371 190.415C28.0371 188.293 29.8041 186.524 31.9246 186.524H52.6576C54.778 186.524 56.5451 188.293 56.5451 190.415C56.5451 192.537 54.778 194.306 52.6576 194.306Z" fill="#A4BCFF"/>
<path d="M83.2863 207.865H31.6892C29.5688 207.865 27.8018 206.096 27.8018 203.974C27.8018 201.851 29.5688 200.083 31.6892 200.083H83.1685C85.2889 200.083 87.0559 201.851 87.0559 203.974C87.1737 206.096 85.4067 207.865 83.2863 207.865Z" fill="#5174F2"/>
<path d="M188.956 119.083H125.814C123.694 119.083 121.927 117.314 121.927 115.192C121.927 113.07 123.694 111.301 125.814 111.301H188.956C191.076 111.301 192.843 113.07 192.843 115.192C192.843 117.314 191.076 119.083 188.956 119.083Z" fill="#BDC3D3"/>
<path d="M64.3202 254.791L31.807 271.533C29.2154 266.581 27.8018 260.922 27.8018 254.791C27.8018 248.07 29.6866 241.703 32.8672 236.28L64.3202 254.791Z" fill="white"/>
<path d="M64.3185 254.79L59.0175 290.987C47.1195 289.218 36.9886 281.672 31.6875 271.297L64.3185 254.79Z" fill="#F96700"/>
<path d="M100.837 254.79C100.837 274.952 84.4627 291.341 64.3186 291.341C62.5516 291.341 60.7846 291.223 59.0176 290.987L64.3186 254.79L95.536 235.808C98.8345 241.349 100.837 247.834 100.837 254.79Z" fill="#FFA200"/>
<path d="M96.1267 236.869L64.3203 254.79V218.24C77.9853 218.24 89.8832 225.786 96.1267 236.869Z" fill="#0187F0"/>
<path d="M64.3197 254.79L32.3955 236.987C38.639 225.904 50.7725 218.358 64.3197 218.24V254.79Z" fill="#25B350"/>
<path d="M574.988 247.127H340.563C334.791 247.127 330.079 242.411 330.079 236.633V91.6114C330.079 85.8341 334.791 81.1179 340.563 81.1179H574.988C580.761 81.1179 585.473 85.8341 585.473 91.6114V236.751C585.473 242.528 580.761 247.127 574.988 247.127Z" fill="#DFE6F7"/>
<path d="M376.375 103.402H347.278C344.451 103.402 342.213 101.162 342.213 98.3319C342.213 95.5023 344.451 93.2621 347.278 93.2621H376.375C379.203 93.2621 381.441 95.5023 381.441 98.3319C381.441 101.044 379.203 103.402 376.375 103.402Z" fill="#656D8B"/>
<path d="M563.445 103.402H500.893C498.065 103.402 495.827 101.162 495.827 98.3319C495.827 95.5023 498.065 93.2621 500.893 93.2621H563.445C566.272 93.2621 568.511 95.5023 568.511 98.3319C568.511 101.044 566.155 103.402 563.445 103.402Z" fill="#BDC4CF"/>
<path d="M690.199 55.7686H642.608C640.487 55.7686 638.838 54.118 638.838 51.9957C638.838 49.8734 640.487 48.2228 642.608 48.2228H690.199C692.32 48.2228 693.969 49.8734 693.969 51.9957C693.969 54.118 692.202 55.7686 690.199 55.7686Z" fill="#5174F2"/>
<path d="M662.986 43.6243H642.253C640.133 43.6243 638.483 41.9737 638.483 39.8514C638.483 37.7291 640.133 36.0785 642.253 36.0785H662.986C665.107 36.0785 666.756 37.7291 666.756 39.8514C666.756 41.9737 665.107 43.6243 662.986 43.6243Z" fill="#A4BCFF"/>
<path d="M681.364 501.092C681.364 501.092 682.424 507.812 681.364 508.402C680.304 508.991 696.207 508.402 696.796 508.284C697.385 508.166 697.032 505.218 697.032 505.218L697.267 499.559L681.364 501.092Z" fill="#F8BAC1"/>
<path d="M626.114 499.677L625.172 507.341L641.429 507.576L640.84 499.913L626.114 499.677Z" fill="#F8BAC1"/>
<path d="M537.646 167.895C545.453 167.895 551.782 161.561 551.782 153.747C551.782 145.933 545.453 139.598 537.646 139.598C529.839 139.598 523.51 145.933 523.51 153.747C523.51 161.561 529.839 167.895 537.646 167.895Z" fill="#D2F0DB"/>
<path d="M537.646 163.533C543.046 163.533 547.423 159.151 547.423 153.747C547.423 148.342 543.046 143.961 537.646 143.961C532.246 143.961 527.868 148.342 527.868 153.747C527.868 159.151 532.246 163.533 537.646 163.533Z" fill="#A1DFB6"/>
<path d="M537.645 159.288C540.703 159.288 543.182 156.807 543.182 153.747C543.182 150.686 540.703 148.205 537.645 148.205C534.587 148.205 532.108 150.686 532.108 153.747C532.108 156.807 534.587 159.288 537.645 159.288Z" fill="#26B54A"/>
<path d="M350.46 180.983C350.46 180.983 355.408 148.913 380.971 151.035C406.533 153.039 419.727 188.646 436.455 186.052C453.183 183.459 462.254 153.747 472.856 156.341C483.458 158.935 481.691 169.9 487.228 168.367C492.764 166.952 506.311 134.528 512.437 134.528C518.563 134.528 522.45 146.555 528.929 150.092C535.408 153.629 537.529 153.983 540.12 151.389" stroke="#2BAC52" stroke-width="2" stroke-miterlimit="10" stroke-linecap="round"/>
<path d="M699.741 516.773V520.546L650.971 520.782C650.735 519.367 650.735 518.07 651.089 517.009C651.089 517.009 651.089 517.009 651.089 516.891C652.384 512.411 657.686 509.935 661.691 509.109C663.458 508.756 665.107 508.756 665.814 509.109C668.759 510.288 681.481 505.926 681.481 505.926C691.023 510.052 696.796 505.218 696.796 505.218C700.683 506.515 699.741 516.773 699.741 516.773Z" fill="#92CCFF"/>
<path d="M699.741 517.009V520.546L650.971 520.782C650.735 519.367 650.735 518.07 651.089 517.009H699.741Z" fill="#111F72"/>
<path d="M662.045 516.891H651.207C652.503 512.411 657.804 509.935 661.809 509.109L662.045 516.891Z" fill="#E1E6F9"/>
<path d="M643.904 514.179V517.952L595.134 518.188C594.898 516.773 594.898 515.476 595.252 514.415C595.252 514.415 595.252 514.415 595.252 514.297C596.548 509.816 601.849 507.341 605.854 506.515C607.621 506.161 609.27 506.161 609.977 506.515C612.922 507.694 625.645 503.332 625.645 503.332C635.186 507.458 640.959 502.624 640.959 502.624C644.846 503.921 643.904 514.179 643.904 514.179Z" fill="#92CCFF"/>
<path d="M643.904 514.415V517.952L595.134 518.188C594.898 516.773 594.898 515.476 595.252 514.415H643.904Z" fill="#111F72"/>
<path d="M606.206 514.415L595.251 514.297C596.547 509.817 601.848 507.341 605.853 506.515L606.206 514.415Z" fill="#E1E6F9"/>
<path d="M693.028 286.978C693.028 286.978 696.562 300.655 695.266 321.052C693.97 341.45 690.2 394.035 690.436 399.812C690.671 405.589 696.679 456.878 696.679 459.589C696.679 462.301 700.213 501.21 700.213 501.21C700.213 501.21 677.713 504.039 675.946 501.21C674.179 498.38 664.402 400.284 664.402 400.284L659.925 324.118L650.148 423.275C650.148 423.275 647.674 500.031 644.376 500.738C641.077 501.445 625.41 501.799 623.76 500.502C622.229 499.205 631.889 292.991 631.889 292.991C631.889 292.991 665.226 305.371 693.028 286.978Z" fill="#22B6FD"/>
<path d="M580.29 144.432C581.939 137.712 588.889 141.131 588.889 141.131C588.889 141.131 583.117 135.236 586.062 133.114C588.889 130.991 594.897 132.288 594.897 132.288C594.897 132.288 594.897 127.572 597.135 126.865C599.373 126.157 600.434 129.341 602.319 129.341C604.203 129.341 621.285 121.323 627.999 136.769C634.714 152.214 624.23 160.703 624.23 160.703L591.481 151.507C591.716 151.389 578.287 152.686 580.29 144.432Z" fill="#04203F"/>
<path d="M649.675 184.284C645.67 197.371 620.461 202.205 620.461 202.205C620.461 202.205 604.793 199.729 609.387 195.013C610.919 193.48 611.508 191.83 611.743 190.297C612.097 186.996 610.565 184.284 610.565 184.284C609.623 184.402 608.68 184.402 607.738 184.284C587.594 182.987 592.895 142.9 592.895 142.9C598.196 141.72 598.903 138.537 598.903 138.537C599.61 143.135 608.916 139.952 611.625 138.537C614.335 137.122 616.455 140.659 616.455 140.659C616.455 140.659 612.921 151.271 615.984 151.153C619.165 151.035 622.11 155.397 622.11 155.397C623.641 153.393 632.83 152.096 633.301 159.17C633.772 166.244 627.411 166.48 627.411 166.48C628.824 177.445 649.675 184.284 649.675 184.284Z" fill="#FABBC3"/>
<path d="M621.402 176.266C621.167 185.699 615.748 189.118 611.743 190.297C612.096 186.996 610.565 184.284 610.565 184.284C609.622 184.402 608.68 184.402 607.737 184.284C608.444 183.812 609.387 183.694 610.447 183.694C616.337 184.166 621.402 176.266 621.402 176.266Z" fill="#FF8388"/>
<path d="M604.912 150.328C604.912 150.328 607.504 148.323 610.331 152.096" stroke="black" stroke-miterlimit="10" stroke-linecap="round"/>
<path d="M594.19 153.275C594.19 153.275 595.486 149.384 598.785 150.681" stroke="black" stroke-miterlimit="10" stroke-linecap="round"/>
<path d="M600.317 152.921C600.317 152.921 601.377 158.935 599.964 163.179C598.55 167.424 599.728 169.192 605.029 168.013" stroke="#FF8388" stroke-miterlimit="10"/>
<path d="M607.151 162.118C607.996 162.118 608.682 161.062 608.682 159.76C608.682 158.458 607.996 157.402 607.151 157.402C606.305 157.402 605.619 158.458 605.619 159.76C605.619 161.062 606.305 162.118 607.151 162.118Z" fill="black"/>
<path d="M596.782 162.707C597.628 162.707 598.314 161.652 598.314 160.349C598.314 159.047 597.628 157.991 596.782 157.991C595.937 157.991 595.251 159.047 595.251 160.349C595.251 161.652 595.937 162.707 596.782 162.707Z" fill="black"/>
<path d="M622.11 163.297C622.11 163.297 624.231 157.166 630.592 158.463" stroke="#FF8388" stroke-miterlimit="10" stroke-linecap="round"/>
<path d="M628.235 163.061C628.235 163.061 624.937 163.061 624.937 159.76" stroke="#FF8388" stroke-miterlimit="10" stroke-linecap="round"/>
<path d="M600.199 171.315C600.199 171.315 606.207 172.14 609.035 170.371C611.862 168.603 609.506 174.852 604.794 175.677C600.082 176.62 600.199 171.315 600.199 171.315Z" fill="white"/>
<path d="M585.827 236.633C585.827 236.633 572.986 284.502 572.986 286.035C572.986 287.45 565.565 309.97 564.858 316.808C564.033 323.529 554.609 325.769 554.609 328.716C554.609 331.546 568.274 327.537 570.395 324.59C572.397 321.76 575.107 329.306 576.285 329.306C577.463 329.306 575.931 322.585 573.575 319.284C571.337 315.983 581.704 301.834 586.416 292.048C591.128 282.262 605.5 241.467 605.5 241.467L585.827 236.633Z" fill="#F7BCC2"/>
<path d="M583.59 239.227C583.59 239.227 589.598 221.66 589.598 219.184C589.598 216.708 595.959 197.489 611.98 194.895C611.98 194.895 631.771 198.668 647.085 183.812L649.677 184.284C649.677 184.284 664.402 187.585 666.876 188.057C669.349 188.529 685.135 191.948 686.784 213.878C688.433 235.808 692.556 261.393 693.145 266.935C693.734 272.476 697.857 288.747 694.206 291.223C690.436 293.699 648.263 309.498 630.239 295.349C630.239 295.349 627.648 268.232 626.234 264.105C624.82 259.978 612.922 237.93 610.92 237.812C608.917 237.694 607.621 243.354 607.621 243.354L583.59 239.227Z" fill="#4E5986"/>
<path d="M658.04 233.332C658.04 233.332 661.103 211.638 662.988 209.515C664.873 207.393 653.21 224.607 652.386 235.69C651.561 246.773 654.153 252.668 652.739 257.502C651.208 262.336 648.263 276.721 648.263 276.721C648.263 276.721 661.574 255.734 658.04 233.332Z" fill="#414C6D"/>
<path d="M658.039 233.332C658.039 233.332 657.686 256.441 654.976 260.332C652.267 264.223 631.416 303.485 629.413 305.371C627.411 307.258 615.513 310.087 611.036 317.279C606.56 324.472 615.277 332.253 615.277 332.253C615.277 332.253 625.879 326.476 628.824 319.991C628.824 319.991 661.573 285.563 666.639 280.022C671.704 274.48 681.364 245.004 681.364 240.76C681.364 236.515 677.241 234.157 658.039 233.332Z" fill="#F8BAC1"/>
<path d="M312.293 347.463V520.9H326.547V347.817C326.665 347.817 312.882 347.935 312.293 347.463Z" fill="#BDC3D1"/>
<path d="M547.542 347.463V520.9H561.796V347.817C561.796 347.817 548.013 347.935 547.542 347.463Z" fill="#BDC3D1"/>
<path d="M652.15 339.681V334.493H609.978V339.563C609.978 339.563 652.15 339.327 652.15 339.681Z" fill="#A5B3E1"/>
<path d="M537.764 332.725V339.563H612.568V333.314C612.568 333.314 538.235 333.079 537.764 332.725Z" fill="#505A73"/>
<path d="M518.798 276.838H606.207L618.104 334.493L530.814 334.376L518.798 276.838Z" fill="#616D86"/>
<path d="M346.69 282.852C346.69 282.852 346.454 290.869 346.454 291.812C346.454 292.874 343.273 297.708 343.273 297.708L350.459 297.825C350.459 297.825 353.169 299.358 350.224 301.363C347.279 303.367 344.451 307.022 346.454 309.498C348.457 311.974 362.475 302.424 362.475 301.952C362.475 301.481 365.656 293.345 364.478 290.633C363.3 287.922 357.645 280.612 357.645 280.612L346.69 282.852Z" fill="#C35E2F"/>
<path d="M512.436 178.978C511.73 178.507 511.73 177.563 512.319 177.092C514.203 175.441 517.502 171.904 517.738 169.192C518.091 165.301 516.913 163.769 520.094 162C522.803 160.585 534.23 153.511 537.764 151.271C538.353 150.917 539.177 151.153 539.531 151.742C539.766 152.214 539.649 152.804 539.295 153.157L532.816 159.76C532.227 160.349 532.345 161.411 533.17 161.764C534.937 162.59 537.41 164.122 537.293 165.891C537.175 168.603 537.41 175.559 535.29 175.559C533.17 175.559 533.287 172.847 532.698 173.083C531.992 173.319 529.164 178.271 526.573 178.271C524.57 178.271 521.625 181.454 520.211 182.987C519.858 183.459 519.151 183.576 518.562 183.223L512.436 178.978Z" fill="#C66231"/>
<path d="M456.598 494.489C456.598 494.489 457.305 503.45 460.839 504.983C464.491 506.515 482.633 511.821 482.986 514.769C483.339 517.716 483.693 521.135 483.693 521.135H434.216C434.216 521.135 427.737 518.542 430.8 507.576C433.863 496.611 434.098 494.371 434.098 494.371L456.598 494.489Z" fill="black"/>
<path d="M369.425 495.079C369.425 495.079 366.833 505.218 366.127 506.044C365.42 506.869 363.771 511.703 365.773 513.472C367.776 515.24 407.357 515.004 407.357 515.004C407.357 515.004 418.548 515.004 418.195 512.411C417.841 509.817 409.477 505.218 404.648 504.865C399.818 504.511 391.925 499.913 391.572 496.14C391.218 492.367 369.425 495.079 369.425 495.079Z" fill="#000201"/>
<path d="M367.188 495.904C367.188 495.904 391.809 500.738 394.283 495.314C396.639 490.009 403 387.079 403 387.079L406.77 321.052L425.382 389.79L430.566 496.376L459.074 495.079L451.652 388.376C451.652 388.376 441.286 286.507 439.401 277.664L375.199 276.603C375.199 276.603 369.898 288.275 370.958 311.384C372.018 334.493 376.495 378.472 375.788 383.542C374.963 388.611 367.188 495.904 367.188 495.904Z" fill="#1F2C7A"/>
<path d="M234.66 339.445V353.476L660.513 353.594L660.395 339.563C660.395 339.563 234.66 338.856 234.66 339.445Z" fill="#FFA002"/>
<path d="M392.632 309.026C392.632 309.026 402.645 317.515 406.297 317.869" stroke="black" stroke-miterlimit="10"/>
<path d="M442.933 136.061C442.933 136.061 441.873 137.948 442.344 140.188C442.815 142.546 444.465 155.515 432.331 153.982L436.69 163.179L429.504 162.589L402.174 160.114C402.174 160.114 409.242 152.568 408.771 143.843C408.3 135.118 421.965 105.996 434.451 106.467C434.451 106.467 440.106 113.07 440.342 118.493C440.577 123.917 443.758 129.576 444.229 130.52C444.465 131.463 447.41 134.528 442.933 136.061Z" fill="#C66231"/>
<path d="M436.691 163.179L429.505 162.589L425.028 160.939L423.026 145.965C423.026 145.965 421.494 137.83 426.678 147.026C426.678 147.026 428.68 151.271 432.45 153.982L436.691 163.179Z" fill="#963E18"/>
<path d="M435.277 120.026C435.277 120.026 435.749 115.428 439.754 116.017" stroke="black" stroke-miterlimit="10" stroke-linecap="round"/>
<path d="M439.771 127.112C440.204 126.97 440.242 125.901 439.856 124.726C439.47 123.551 438.807 122.713 438.374 122.855C437.942 122.997 437.903 124.066 438.289 125.241C438.675 126.416 439.338 127.254 439.771 127.112Z" fill="black"/>
<path d="M521.507 183.459C521.507 183.459 490.29 230.149 486.991 233.45C483.575 236.633 478.392 238.991 473.444 234.039C468.497 229.087 454.007 212.227 454.007 212.227C454.007 212.227 450.944 209.633 450.355 218.476C449.766 227.437 445.172 254.083 444.347 257.384C443.523 260.568 443.523 278.607 443.523 279.315C443.523 280.022 439.871 279.668 436.101 281.201C432.449 282.734 395.813 292.991 371.193 278.843C371.193 278.843 378.614 258.092 377.083 251.607C375.551 245.122 369.426 222.603 369.426 222.603L356.232 234.157C356.232 234.157 355.643 239.109 356.703 245.476C357.763 251.961 359.648 281.083 359.648 281.083C359.648 281.083 348.457 285.563 345.276 284.031C345.276 284.031 338.326 254.083 336.323 249.485C334.321 244.887 330.08 232.389 335.852 223.31C341.624 214.232 362.711 180.275 362.711 180.275C362.711 180.275 372.488 164.476 394.164 161.646C394.164 161.646 396.638 161.646 399.701 159.76C401.821 158.463 404.177 156.341 406.297 152.686C406.297 152.686 428.209 151.153 433.981 155.397L437.515 162.472C437.515 162.472 447.646 168.603 450.591 168.721C453.536 168.839 462.135 169.546 469.439 182.28C476.861 195.013 482.044 201.616 482.044 201.616L511.965 175.323L521.507 183.459Z" fill="#2847E0"/>
<path d="M437.633 162.707L399.937 159.996C402.057 158.699 404.413 156.576 406.533 152.921C406.533 152.921 428.444 151.389 434.217 155.633L437.633 162.707Z" fill="white"/>
<path d="M433.273 102.812C432.449 101.751 422.436 97.035 413.483 101.162C404.412 105.288 400.76 106.585 397.697 113.188C390.865 127.926 398.051 144.786 406.886 145.14C415.721 145.493 422.436 144.904 424.438 131.581C424.674 128.515 426.912 123.681 430.093 126.511C433.273 129.223 432.095 128.397 432.095 128.397L433.862 126.511C433.862 126.511 431.271 123.328 432.095 121.087C432.92 118.729 432.802 113.659 432.331 112.362C431.86 111.066 435.747 111.183 436.572 106.939" fill="#331531"/>
<path d="M432.449 139.834C431.036 139.834 429.858 139.48 428.797 138.773C427.148 137.594 425.97 135.707 425.617 133.231C424.792 128.279 427.384 127.218 427.502 127.1C427.855 126.983 428.091 127.1 428.208 127.454C428.326 127.808 428.208 128.044 427.855 128.162C427.737 128.162 425.97 128.987 426.677 132.996C427.03 135.236 427.973 136.886 429.386 137.712C430.682 138.537 432.331 138.773 434.216 138.301C434.57 138.183 434.805 138.419 434.923 138.773C435.041 139.127 434.805 139.362 434.452 139.48C433.863 139.716 433.156 139.834 432.449 139.834Z" fill="#963E18"/>
<path d="M434.687 135.708C434.451 135.708 434.098 135.472 434.098 135.236C433.391 130.756 428.679 130.402 428.444 130.402C428.09 130.402 427.854 130.048 427.854 129.812C427.854 129.577 428.208 129.223 428.444 129.223C428.444 129.223 434.334 129.694 435.158 135.118C435.276 135.354 435.04 135.708 434.687 135.708Z" fill="#963E18"/>
<path d="M431.27 136.179C431.152 136.179 430.916 136.061 430.798 135.943C430.563 135.707 430.681 135.354 430.916 135.118C431.976 134.175 431.623 131.934 431.387 131.227C431.27 130.873 431.505 130.638 431.741 130.52C432.094 130.402 432.33 130.638 432.448 130.873C432.448 130.991 433.508 134.528 431.623 136.061C431.623 136.179 431.387 136.179 431.27 136.179Z" fill="#963E18"/>
</svg>
