<svg width="571" height="446" viewBox="0 0 571 446" fill="none" xmlns="http://www.w3.org/2000/svg">
<path d="M187.057 244.513H22.8401C10.2569 244.513 0 234.218 0 221.59V22.9231C0 10.2941 10.2569 0 22.8401 0H186.951C199.534 0 209.791 10.2941 209.791 22.9231V221.59C209.791 234.218 199.64 244.513 187.057 244.513Z" fill="white"/>
<path d="M292.587 106.337H184.942C172.358 106.337 162.102 96.0434 162.102 83.4144V67.814C162.102 55.1851 172.358 44.891 184.942 44.891H292.587C305.17 44.891 315.427 55.1851 315.427 67.814V83.4144C315.321 96.1495 305.17 106.337 292.587 106.337Z" fill="white"/>
<path d="M86.3903 225.622H40.4985C38.0664 225.622 36.1631 223.712 36.1631 221.271C36.1631 218.83 38.0664 216.92 40.4985 216.92H86.3903C88.8223 216.92 90.7257 218.83 90.7257 221.271C90.7257 223.712 88.8223 225.622 86.3903 225.622Z" fill="#C9C9E2"/>
<path d="M180.923 225.198H135.032C132.6 225.198 130.696 223.288 130.696 220.847C130.696 218.406 132.6 216.495 135.032 216.495H180.923C183.355 216.495 185.259 218.406 185.259 220.847C185.259 223.288 183.25 225.198 180.923 225.198Z" fill="#C9C9E2"/>
<path d="M251.665 80.8674H205.773C203.341 80.8674 201.438 78.9572 201.438 76.5163C201.438 74.0754 203.341 72.1652 205.773 72.1652H251.665C254.097 72.1652 256 74.0754 256 76.5163C256 78.9572 254.097 80.8674 251.665 80.8674Z" fill="#C9C9E2"/>
<path d="M284.338 80.8674H265.728C263.296 80.8674 261.393 78.9572 261.393 76.5163C261.393 74.0754 263.296 72.1652 265.728 72.1652H284.338C286.771 72.1652 288.674 74.0754 288.674 76.5163C288.674 78.9572 286.771 80.8674 284.338 80.8674Z" fill="#C9C9E2"/>
<path d="M24.5316 226.047H24.1086C21.1479 226.047 18.7158 223.606 18.7158 220.634V220.21C18.7158 217.238 21.1479 214.797 24.1086 214.797H24.5316C27.4924 214.797 29.9244 217.238 29.9244 220.21V220.634C29.9244 223.606 27.4924 226.047 24.5316 226.047Z" fill="#23C884"/>
<path d="M119.065 225.622H118.642C115.681 225.622 113.249 223.181 113.249 220.21V219.785C113.249 216.814 115.681 214.373 118.642 214.373H119.065C122.026 214.373 124.458 216.814 124.458 219.785V220.21C124.458 223.181 122.026 225.622 119.065 225.622Z" fill="#C692FF"/>
<path d="M189.806 81.1858H189.383C186.422 81.1858 183.99 78.7449 183.99 75.7734V75.3489C183.99 72.3774 186.422 69.9365 189.383 69.9365H189.806C192.767 69.9365 195.199 72.3774 195.199 75.3489V75.7734C195.199 78.851 192.767 81.1858 189.806 81.1858Z" fill="#FFBD6F"/>
<path d="M17.5537 201.107H184.096" stroke="#CCD0DD" stroke-width="0.8451" stroke-miterlimit="10"/>
<path d="M92.2067 138.175L88.1885 160.249L102.887 165.025L118.853 160.249L115.047 138.175H92.2067Z" fill="#F5F5FC" stroke="black" stroke-width="1.2677" stroke-miterlimit="10"/>
<path d="M130.591 120.24C130.591 120.24 136.512 115.57 136.935 110.795C137.358 106.019 132.811 105.276 132.811 105.276L130.591 120.24Z" fill="#F5F5FC" stroke="black" stroke-width="1.2677" stroke-miterlimit="10"/>
<path d="M80.0461 118.33C80.0461 118.33 74.1246 113.66 73.7016 108.884C73.2786 104.109 77.8255 103.366 77.8255 103.366L80.0461 118.33Z" fill="#F5F5FC" stroke="black" stroke-width="1.2677" stroke-miterlimit="10"/>
<path d="M134.609 125.334C135.952 125.334 137.041 124.241 137.041 122.893C137.041 121.545 135.952 120.452 134.609 120.452C133.266 120.452 132.177 121.545 132.177 122.893C132.177 124.241 133.266 125.334 134.609 125.334Z" fill="#BAF2DD" stroke="black" stroke-width="1.6902" stroke-miterlimit="10"/>
<path d="M75.2875 123.424C76.6307 123.424 77.7196 122.331 77.7196 120.983C77.7196 119.635 76.6307 118.542 75.2875 118.542C73.9443 118.542 72.8555 119.635 72.8555 120.983C72.8555 122.331 73.9443 123.424 75.2875 123.424Z" fill="#BAF2DD" stroke="black" stroke-width="1.6902" stroke-miterlimit="10"/>
<path d="M133.446 104.215C133.446 104.215 131.331 147.196 102.886 147.62C102.78 147.62 102.675 147.62 102.675 147.62C88.3997 147.726 76.0279 122.999 78.8829 99.8638L106.27 84.9001L107.01 84.4756L133.446 104.215Z" fill="#F5F5FC" stroke="black" stroke-width="1.2677" stroke-miterlimit="10"/>
<path d="M103.203 147.09C103.097 147.09 102.991 147.09 102.991 147.09C88.7161 147.196 76.3443 122.681 79.1993 99.7577L106.586 84.9002C105 94.876 100.665 115.677 91.6768 123.211C90.3022 126.501 93.1572 142.845 103.203 147.09Z" fill="#CCCCFF"/>
<path d="M103.944 133.506C100.031 133.187 99.1855 127.35 99.1855 127.35C99.1855 127.35 102.146 128.836 105.107 128.942C108.068 129.048 110.817 127.987 110.817 127.987C110.817 127.987 110.923 133.93 103.944 133.506Z" fill="#21233E"/>
<path d="M94.2149 114.191C95.2661 114.191 96.1182 113.335 96.1182 112.28C96.1182 111.225 95.2661 110.37 94.2149 110.37C93.1637 110.37 92.3115 111.225 92.3115 112.28C92.3115 113.335 93.1637 114.191 94.2149 114.191Z" fill="#21233E"/>
<path d="M115.151 114.615C116.203 114.615 117.055 113.76 117.055 112.705C117.055 111.65 116.203 110.795 115.151 110.795C114.1 110.795 113.248 111.65 113.248 112.705C113.248 113.76 114.1 114.615 115.151 114.615Z" fill="#21233E"/>
<path d="M105.106 118.436C105.106 118.436 108.701 122.681 105.952 123.53C103.203 124.379 104.154 125.228 104.154 125.228" stroke="black" stroke-width="1.2677" stroke-miterlimit="10" stroke-linecap="round"/>
<path d="M91.2543 123.53C84.9098 123.53 79.7285 118.33 79.7285 111.962V105.064C79.7285 103.684 80.7859 102.623 82.1606 102.623H100.348C101.723 102.623 102.78 103.684 102.78 105.064V108.248V111.962C102.886 118.33 97.7045 123.53 91.2543 123.53Z" stroke="black" stroke-width="1.0373" stroke-miterlimit="10"/>
<path d="M118.958 123.53C112.614 123.53 107.433 118.33 107.433 111.962V105.064C107.433 103.684 108.49 102.623 109.865 102.623H128.052C129.427 102.623 130.484 103.684 130.484 105.064V111.962C130.59 118.33 125.409 123.53 118.958 123.53Z" stroke="black" stroke-width="1.0373" stroke-miterlimit="10"/>
<path d="M107.01 108.248H102.886" stroke="black" stroke-width="1.0373" stroke-miterlimit="10"/>
<path d="M111.452 44.1481C83.9589 40.9643 78.0373 64.8425 80.9981 80.4429C80.9981 80.4429 74.9708 91.5861 77.0857 103.26C77.0857 103.26 96.8593 108.778 106.376 91.7983C106.376 91.7983 113.989 112.174 134.292 106.125C134.292 106.125 137.464 89.8881 133.446 82.8838C133.446 82.9899 147.192 48.3931 111.452 44.1481Z" fill="#21233E"/>
<path d="M83.958 75.6673C83.958 75.6673 91.4657 65.0547 109.124 68.2385" stroke="#BFBFF0" stroke-width="2.5354" stroke-miterlimit="10" stroke-linecap="round"/>
<path d="M293.785 419.789H59.3558C46.7726 419.789 36.5156 409.495 36.5156 396.866V335.101C36.5156 322.472 46.7726 312.178 59.3558 312.178H293.785C306.368 312.178 316.625 322.472 316.625 335.101V396.866C316.519 409.601 306.368 419.789 293.785 419.789Z" fill="white"/>
<path d="M277.183 349.428H146.275C143.843 349.428 141.939 347.518 141.939 345.077C141.939 342.636 143.843 340.726 146.275 340.726H277.183C279.615 340.726 281.518 342.636 281.518 345.077C281.518 347.518 279.615 349.428 277.183 349.428Z" fill="#C9C9E2"/>
<path d="M213.103 367.681H146.275C143.843 367.681 141.939 365.771 141.939 363.33C141.939 360.889 143.843 358.979 146.275 358.979H213.103C215.536 358.979 217.439 360.889 217.439 363.33C217.439 365.771 215.536 367.681 213.103 367.681Z" fill="#C9C9E2"/>
<path d="M195.55 384.131H146.275C143.843 384.131 141.939 382.221 141.939 379.78C141.939 377.339 143.843 375.429 146.275 375.429H195.55C197.982 375.429 199.886 377.339 199.886 379.78C199.886 382.115 197.982 384.131 195.55 384.131Z" fill="#C9C9E2"/>
<path d="M71.7276 338.922C71.7276 338.922 69.4013 347.305 69.1898 351.338C68.9783 355.371 66.0176 370.759 82.4075 370.228C82.4075 370.228 82.3018 372.988 81.9845 373.624C81.773 374.367 81.1386 376.172 79.1295 377.551C77.2261 379.037 74.8998 404.082 74.8998 404.082H104.507L99.9606 372.882L97.3171 359.616C97.3171 359.616 101.758 347.412 101.547 345.183C101.335 342.954 97.5285 336.693 92.5587 336.587C87.8003 336.587 71.7276 338.922 71.7276 338.922Z" fill="#F5F5FC" stroke="black" stroke-width="0.4684" stroke-miterlimit="10"/>
<path d="M81.6672 373.306L84.4165 383.07L85.5796 398.882L89.1748 383.919L99.9605 372.563C99.9605 372.563 102.287 377.127 103.873 377.339C105.459 377.551 108.948 379.037 110.958 379.249C113.072 379.355 122.166 381.69 123.858 383.6C125.55 385.511 129.145 404.295 129.145 404.295H54.7031C54.7031 404.295 57.1352 383.919 67.7093 379.674C67.7093 379.674 68.7667 379.037 70.1414 378.612C71.516 378.188 75.6399 377.657 77.649 377.763V376.914C77.649 376.914 78.8122 376.914 79.6581 376.065C80.504 375.322 81.0327 373.2 81.6672 373.306Z" fill="#23C884" stroke="black" stroke-width="0.4684" stroke-miterlimit="10"/>
<path d="M77.7549 377.127L79.5525 392.621L84.0994 383.388" stroke="black" stroke-width="0.4684" stroke-miterlimit="10" stroke-linecap="round"/>
<path d="M89.3867 383.813L94.1451 392.409L103.662 377.127" stroke="black" stroke-width="0.4684" stroke-miterlimit="10" stroke-linecap="round"/>
<path d="M66.5463 398.458L66.0176 404.189" stroke="black" stroke-width="0.4684" stroke-miterlimit="10" stroke-linecap="round"/>
<path d="M70.8811 354.522C73.4507 354.522 75.5337 352.431 75.5337 349.852C75.5337 347.274 73.4507 345.183 70.8811 345.183C68.3116 345.183 66.2285 347.274 66.2285 349.852C66.2285 352.431 68.3116 354.522 70.8811 354.522Z" stroke="black" stroke-width="0.4684" stroke-miterlimit="10"/>
<path d="M82.302 354.734C84.8716 354.734 86.9547 352.644 86.9547 350.065C86.9547 347.486 84.8716 345.395 82.302 345.395C79.7325 345.395 77.6494 347.486 77.6494 350.065C77.6494 352.644 79.7325 354.734 82.302 354.734Z" stroke="black" stroke-width="0.4684" stroke-miterlimit="10"/>
<path d="M75.2168 348.154H77.9661" stroke="black" stroke-width="0.3122" stroke-miterlimit="10"/>
<path d="M86.7432 348.154H88.5408" stroke="black" stroke-width="0.3122" stroke-miterlimit="10"/>
<path d="M77.2262 352.187H74.6884C73.4195 352.187 72.4678 353.142 72.4678 354.416C72.4678 355.689 73.4195 356.644 74.6884 356.644H77.2262" fill="#F5F5FC"/>
<path d="M77.2262 352.187H74.6884C73.4195 352.187 72.4678 353.142 72.4678 354.416C72.4678 355.689 73.4195 356.644 74.6884 356.644H77.2262" stroke="black" stroke-width="0.4684" stroke-miterlimit="10"/>
<path d="M81.1387 351.02V350.489C81.1387 349.746 81.6674 349.216 82.4076 349.216C83.1478 349.216 83.6766 349.746 83.6766 350.489V351.02" stroke="black" stroke-width="0.6245" stroke-miterlimit="10" stroke-linecap="round"/>
<path d="M70.7754 351.02V350.489C70.7754 349.746 71.3041 349.216 72.0443 349.216C72.7845 349.216 73.3132 349.746 73.3132 350.489V351.02" stroke="black" stroke-width="0.6245" stroke-miterlimit="10" stroke-linecap="round"/>
<path d="M76.4854 361.314C76.4854 361.314 81.561 362.481 82.8299 358.236" stroke="black" stroke-width="0.6245" stroke-miterlimit="10" stroke-linecap="round"/>
<path d="M82.4072 370.229C82.4072 370.229 87.0599 370.335 90.8666 364.392" stroke="black" stroke-width="0.4684" stroke-miterlimit="10" stroke-linecap="round"/>
<path d="M69.1894 328.627C66.4402 330.219 60.0957 339.452 71.3043 340.938C71.3043 340.938 86.2138 341.575 88.1171 341.15C90.0204 340.726 90.7606 341.999 90.3377 343.379C89.9147 344.865 87.3769 350.701 88.7516 353.673H90.5492C90.5492 353.673 90.6549 349.216 94.7788 348.685C98.9027 348.154 98.9027 352.506 98.2683 353.673C97.6338 354.84 94.9903 357.706 94.9903 358.555C94.9903 359.404 94.4616 360.996 97.3166 360.996C100.172 360.996 104.507 349.428 104.19 345.289C103.873 341.15 100.595 325.656 82.9358 331.705C82.9358 331.705 78.7062 329.264 76.9086 329.37C75.111 329.476 73.2076 329.37 72.3617 329.158C71.0928 328.734 70.0354 328.097 69.1894 328.627Z" fill="#21233E"/>
<path d="M324.682 362.064H312.627C300.044 362.064 289.787 351.769 289.787 339.141V242.779C289.787 230.15 300.044 219.856 312.627 219.856H324.682C337.265 219.856 347.522 230.15 347.522 242.779V339.141C347.416 351.769 337.265 362.064 324.682 362.064Z" fill="white"/>
<path d="M313.261 253.497H293.382C282.913 253.497 274.454 245.007 274.454 234.501V214.549C274.454 204.043 282.913 195.553 293.382 195.553H313.261C323.73 195.553 332.189 204.043 332.189 214.549V234.501C332.189 245.007 323.73 253.497 313.261 253.497Z" fill="#23C884"/>
<path d="M311.78 322.903H322.143C322.355 322.903 322.566 322.691 322.566 322.479C322.566 322.267 322.355 322.054 322.143 322.054H311.78C311.569 322.054 311.357 322.267 311.357 322.479C311.357 322.797 311.569 322.903 311.78 322.903Z" fill="#B7B7C7"/>
<path d="M320.346 325.45H313.578C313.367 325.45 313.155 325.663 313.155 325.875C313.155 326.087 313.367 326.299 313.578 326.299H320.346C320.557 326.299 320.769 326.087 320.769 325.875C320.769 325.556 320.557 325.45 320.346 325.45Z" fill="#B7B7C7"/>
<path d="M318.865 328.634H315.164C314.953 328.634 314.741 328.846 314.741 329.059C314.741 329.271 314.953 329.483 315.164 329.483H318.971C319.182 329.483 319.394 329.271 319.394 329.059C319.288 328.846 319.077 328.634 318.865 328.634Z" fill="#B7B7C7"/>
<path d="M308.608 329.695L305.436 327.361L308.608 325.132V329.695ZM324.575 319.613V330.226L316.962 335.744L309.348 330.226V319.613H324.575ZM316.645 317.385C316.856 317.173 317.173 317.173 317.385 317.385L318.865 318.871H315.164L316.645 317.385ZM328.488 327.361L325.315 329.695V325.132L328.488 327.361ZM319.711 334.683L328.065 340.839H306.07L314.424 334.683L316.856 336.487C316.962 336.487 316.962 336.594 317.068 336.594C317.173 336.594 317.173 336.593 317.279 336.487L319.711 334.683ZM328.805 328.103V340.414L320.346 334.153L328.805 328.103ZM313.684 334.259L305.225 340.52V328.21L313.684 334.259ZM304.484 341.369C304.484 341.475 304.484 341.475 304.484 341.475L304.59 341.581C304.59 341.581 304.696 341.581 304.802 341.581H329.122C329.228 341.581 329.228 341.581 329.334 341.581C329.334 341.581 329.439 341.581 329.439 341.475C329.439 341.475 329.439 341.475 329.439 341.369C329.439 341.369 329.439 341.369 329.439 341.263V327.467C329.439 327.467 329.439 327.467 329.439 327.361L325.421 324.495V319.507C325.421 319.295 325.21 319.083 324.998 319.083H320.028L318.019 317.066C317.491 316.536 316.75 316.536 316.222 317.066L314.107 319.083H309.031C308.82 319.083 308.608 319.295 308.608 319.507V324.495L304.59 327.361C304.59 327.361 304.59 327.361 304.59 327.467V341.263C304.484 341.263 304.484 341.263 304.484 341.369C304.484 341.263 304.484 341.263 304.484 341.369Z" fill="#B7B7C7"/>
<path d="M294.863 214.337C295.92 215.717 297.083 217.203 298.141 218.582C298.458 219.219 298.458 219.537 298.352 219.856C298.246 220.174 298.035 220.386 297.612 220.705C296.237 221.978 295.709 223.358 295.814 224.525C295.92 225.799 296.66 226.966 297.612 227.815C298.564 228.77 299.304 229.513 300.15 230.362C300.996 231.317 302.159 231.954 303.428 232.166C304.697 232.272 306.071 231.742 307.234 230.362C307.552 230.044 307.763 229.725 308.08 229.619C308.398 229.513 308.715 229.513 309.349 229.832C310.724 230.893 312.204 232.06 313.579 233.121C314.108 233.652 314.108 233.97 314.002 234.395C313.896 234.819 313.473 235.244 313.05 235.668C310.407 238.322 308.08 239.171 305.648 238.746C303.216 238.322 300.678 236.517 297.718 233.546C296.555 232.379 295.18 230.999 294.122 229.938C291.162 226.966 289.364 224.419 288.941 221.978C288.518 219.537 289.364 217.203 292.008 214.55C292.431 214.125 292.854 213.807 293.277 213.594C294.017 213.807 294.44 213.807 294.863 214.337ZM298.246 227.391C297.4 226.648 296.766 225.48 296.66 224.525C296.555 223.464 296.977 222.403 298.246 221.235C298.564 220.917 298.987 220.599 299.198 220.068C299.41 219.537 299.304 219.007 298.881 218.264C297.718 216.778 296.555 215.186 295.497 213.807C294.863 213.17 294.122 213.064 293.488 213.276C292.854 213.488 292.431 213.913 291.902 214.337C289.153 217.097 288.095 219.644 288.624 222.403C289.047 225.056 290.95 227.709 294.017 230.787L297.612 234.395C300.573 237.366 303.216 239.277 305.966 239.807C308.609 240.232 311.253 239.171 314.002 236.517C314.531 235.987 314.848 235.562 315.059 234.926C315.271 234.289 315.165 233.546 314.531 232.909C313.156 231.848 311.57 230.681 310.089 229.513C309.349 229.089 308.715 228.983 308.292 229.195C307.763 229.407 307.446 229.725 307.129 230.15C305.966 231.423 304.908 231.742 303.851 231.742C302.899 231.636 301.736 230.999 300.996 230.15" fill="white"/>
<path d="M298.246 227.391C297.4 226.648 296.766 225.48 296.66 224.525C296.555 223.464 296.977 222.403 298.246 221.235C298.564 220.917 298.987 220.599 299.198 220.068C299.41 219.537 299.304 219.007 298.881 218.264C297.718 216.778 296.555 215.186 295.497 213.807C294.863 213.17 294.122 213.064 293.488 213.276C292.854 213.488 292.431 213.913 291.902 214.337C289.153 217.097 288.095 219.644 288.624 222.403C289.047 225.056 290.95 227.709 294.017 230.787L297.612 234.395C300.573 237.366 303.216 239.277 305.966 239.807C308.609 240.232 311.253 239.171 314.002 236.517C314.531 235.987 314.848 235.562 315.059 234.926C315.271 234.289 315.165 233.546 314.531 232.909C313.156 231.848 311.57 230.681 310.089 229.513C309.349 229.089 308.715 228.983 308.292 229.195C307.763 229.407 307.446 229.725 307.129 230.15C305.966 231.423 304.908 231.742 303.851 231.742C302.899 231.636 301.736 230.999 300.996 230.15M294.863 214.337C295.92 215.717 297.083 217.203 298.141 218.582C298.458 219.219 298.458 219.537 298.352 219.856C298.246 220.174 298.035 220.386 297.612 220.705C296.237 221.978 295.709 223.358 295.814 224.525C295.92 225.799 296.66 226.966 297.612 227.815C298.564 228.77 299.304 229.513 300.15 230.362C300.996 231.317 302.159 231.954 303.428 232.166C304.697 232.272 306.071 231.742 307.234 230.362C307.552 230.044 307.763 229.725 308.08 229.619C308.398 229.513 308.715 229.513 309.349 229.832C310.724 230.893 312.204 232.06 313.579 233.121C314.108 233.652 314.108 233.97 314.002 234.395C313.896 234.819 313.473 235.244 313.05 235.668C310.407 238.322 308.08 239.171 305.648 238.746C303.216 238.322 300.678 236.517 297.718 233.546C296.555 232.379 295.18 230.999 294.122 229.938C291.162 226.966 289.364 224.419 288.941 221.978C288.518 219.537 289.364 217.203 292.008 214.55C292.431 214.125 292.854 213.807 293.277 213.594C294.017 213.807 294.44 213.807 294.863 214.337Z" stroke="white" stroke-width="0.6479" stroke-miterlimit="10"/>
<path d="M302.794 214.019C302.794 214.231 303.005 214.337 303.217 214.337C309.35 214.337 314.426 219.325 314.426 225.587C314.426 225.799 314.637 225.905 314.743 225.905C314.848 225.905 315.06 225.693 315.06 225.587C315.06 219.007 309.773 213.594 303.111 213.594C303.005 213.7 302.794 213.913 302.794 214.019ZM302.794 209.774C302.794 209.986 303.005 210.092 303.217 210.092C311.782 210.092 318.761 217.097 318.761 225.693C318.761 225.905 318.972 226.011 319.078 226.011C319.184 226.011 319.395 225.799 319.395 225.693C319.395 216.672 312.099 209.455 303.217 209.455C303.005 209.349 302.794 209.562 302.794 209.774Z" fill="white" stroke="white" stroke-width="0.6479" stroke-miterlimit="10"/>
<path d="M325.845 292.658C325.845 293.188 325.422 293.613 324.893 293.613H313.473C312.944 293.613 312.521 293.825 312.31 294.25L310.724 296.69C310.618 296.903 310.406 296.903 310.301 296.903C310.195 296.903 309.983 296.903 309.878 296.69L308.503 294.25C308.292 293.825 307.763 293.507 307.34 293.507H305.331C304.802 293.507 304.379 293.082 304.379 292.552V280.029C304.379 279.498 304.802 279.074 305.331 279.074H324.787C325.316 279.074 325.739 279.498 325.739 280.029L325.845 292.658ZM324.893 278.225H305.437C304.379 278.225 303.533 279.074 303.533 280.135V292.658C303.533 293.719 304.379 294.568 305.437 294.568H307.446C307.657 294.568 307.763 294.674 307.869 294.78L309.243 297.221C309.455 297.646 309.878 297.964 310.406 297.964C310.935 297.964 311.358 297.752 311.57 297.327L313.156 294.886C313.261 294.78 313.367 294.674 313.579 294.674H324.999C326.056 294.674 326.902 293.825 326.902 292.764V280.241C326.796 279.074 325.95 278.225 324.893 278.225Z" fill="#B7B7C7"/>
<path d="M329.757 273.98H310.301C309.243 273.98 308.397 274.829 308.397 275.89V276.527C308.397 276.739 308.609 276.951 308.82 276.951C309.032 276.951 309.243 276.739 309.243 276.527V275.89C309.243 275.359 309.666 274.935 310.195 274.935H329.651C330.18 274.935 330.603 275.359 330.603 275.89V288.413C330.603 288.943 330.18 289.368 329.651 289.368H328.911C328.7 289.368 328.488 289.58 328.488 289.792C328.488 290.005 328.7 290.217 328.911 290.217H329.757C330.815 290.217 331.661 289.368 331.661 288.307V275.784C331.555 274.829 330.709 273.98 329.757 273.98Z" fill="#B7B7C7"/>
<path d="M321.932 282.151H308.398C308.186 282.151 307.975 282.363 307.975 282.576C307.975 282.788 308.186 283 308.398 283H321.932C322.144 283 322.355 282.788 322.355 282.576C322.355 282.363 322.144 282.151 321.932 282.151Z" fill="#B7B7C7"/>
<path d="M321.932 285.866H308.398C308.186 285.866 307.975 286.078 307.975 286.29C307.975 286.502 308.186 286.715 308.398 286.715H321.932C322.144 286.715 322.355 286.502 322.355 286.29C322.355 286.078 322.144 285.866 321.932 285.866Z" fill="#B7B7C7"/>
<path d="M321.932 289.686H308.398C308.186 289.686 307.975 289.898 307.975 290.111C307.975 290.323 308.186 290.535 308.398 290.535H321.932C322.144 290.535 322.355 290.323 322.355 290.111C322.355 289.792 322.144 289.686 321.932 289.686Z" fill="#B7B7C7"/>
<path d="M418.461 343.059C418.461 343.059 420.364 364.39 419.624 371.713C418.884 379.035 418.461 385.934 418.461 385.934V440.907L468.265 443.666L469.217 400.367L487.193 444.409H543.342V360.994C543.342 360.994 534.565 342.528 526.634 342.953C518.598 343.377 422.373 335.842 422.373 335.842L418.461 343.059Z" fill="#F5F5FC" stroke="black" stroke-width="2.54" stroke-miterlimit="10"/>
<path d="M462.871 169.65C462.871 169.65 435.273 176.655 429.563 179.944C423.853 183.234 399.321 200.002 396.889 225.791C394.351 251.579 392.765 256.461 390.967 262.934C389.17 269.408 385.363 274.714 387.372 275.351C389.381 276.094 420.786 273.335 420.786 273.335C420.786 273.335 412.01 337.01 414.336 344.969C416.662 352.929 424.276 345.288 430.726 342.634C437.176 339.875 447.222 344.969 454.623 347.304C462.025 349.639 501.573 352.398 509.609 351.973C517.645 351.549 525.47 354.308 533.189 358.659C540.909 363.01 554.443 377.443 554.02 358.659C553.703 339.875 555.078 267.71 555.078 267.71C555.078 267.71 564.066 271.318 566.815 271.318C569.564 271.318 569.882 270.363 568.401 262.51C566.921 254.551 563.326 233.644 563.326 223.137C563.326 212.631 553.809 179.838 530.229 173.152C506.648 166.467 495.651 165.193 491.21 165.405C486.769 165.618 462.871 169.65 462.871 169.65Z" fill="#23C884" stroke="black" stroke-width="2.54" stroke-miterlimit="10"/>
<path d="M530.652 255.718C530.652 255.718 519.972 255.824 522.721 247.652C525.47 239.481 529.065 238.101 529.065 227.595C529.065 217.088 534.458 188.859 550.848 189.071" stroke="black" stroke-width="2.54" stroke-miterlimit="10" stroke-linecap="round"/>
<path d="M424.911 193.104H443.944C446.588 193.104 448.914 195.014 449.548 197.561L457.267 232.37C458.113 235.979 455.364 239.375 451.663 239.375H433.264C430.621 239.375 428.294 237.57 427.66 235.023L419.306 200.214C418.566 196.606 421.21 193.104 424.911 193.104Z" fill="#F5F5FC" stroke="black" stroke-width="1.6933" stroke-miterlimit="10"/>
<path d="M414.654 211.57C412.433 216.239 412.856 220.484 416.028 227.489C419.201 234.493 422.056 236.403 418.355 241.179C414.654 245.954 390.016 276.412 386.632 285.539C383.248 294.666 382.085 304.429 389.593 308.78C397.101 313.132 407.675 309.523 415.394 295.833C423.219 282.249 433.37 244.256 433.37 244.256C433.37 244.256 434.956 237.889 433.37 234.493C431.784 231.097 429.563 228.762 430.621 227.489C431.572 226.321 433.37 225.897 434.11 226.533C434.745 227.17 435.802 230.885 435.802 230.885C435.802 230.885 439.714 230.885 437.6 224.729C437.6 224.729 439.291 221.758 438.234 218.999C438.234 218.999 438.128 215.072 435.908 212.949C435.908 212.949 432.63 207.431 425.545 210.402C425.545 210.402 425.439 207.006 431.784 204.141C438.128 201.276 437.282 200.533 436.859 200.002C436.436 199.472 434.322 197.986 430.409 200.002C426.497 202.019 417.509 205.627 414.654 211.57Z" fill="#F5F5FC" stroke="black" stroke-width="2.54" stroke-miterlimit="10"/>
<path d="M454.518 202.549C454.518 202.549 453.778 205.521 456.738 205.733C459.699 205.945 467.735 208.174 469.216 209.235C470.696 210.402 462.448 211.251 462.343 214.754C462.237 218.256 463.189 219.105 463.189 219.105C463.189 219.105 461.814 220.272 461.92 222.607C462.131 224.835 463.717 225.684 463.717 225.684C463.717 225.684 461.391 227.701 461.92 229.293C462.343 230.885 462.977 231.415 462.977 231.415C462.977 231.415 460.757 233.432 461.92 235.66C462.977 237.889 472.705 239.905 472.705 239.905C472.705 239.905 480.107 252.959 486.663 254.126C486.663 254.126 493.431 261.343 502.524 275.033C511.512 288.723 527.162 313.875 536.785 314.936C546.513 315.997 556.241 312.707 558.356 298.274C560.471 283.841 560.788 269.726 560.788 269.726L531.709 256.461L530.123 266.649L496.497 237.464C496.497 237.464 487.826 228.55 485.077 222.288C482.116 216.133 480.953 201.17 454.518 202.549Z" fill="#F5F5FC" stroke="black" stroke-width="2.54" stroke-miterlimit="10"/>
<path d="M546.936 283.098L530.018 266.861" stroke="black" stroke-width="1.6933" stroke-miterlimit="10" stroke-linecap="round"/>
<path d="M412.751 101.2C412.751 101.2 405.032 86.6604 422.902 81.6725C422.902 81.6725 429.352 71.06 444.05 67.7701C458.748 64.4802 466.256 75.305 466.256 75.305C466.256 75.305 490.365 65.7537 492.586 105.126C494.7 144.499 488.885 141.845 488.885 141.845L429.564 130.702C429.564 130.702 422.162 135.372 417.403 132.188C412.645 129.004 409.367 122.955 412.751 116.588C412.751 116.588 404.397 110.008 412.751 101.2Z" fill="#21233E"/>
<path d="M429.563 129.217C429.563 129.217 432.524 125.29 432.312 119.665C432.312 119.665 446.799 119.029 450.5 102.473C450.5 102.473 453.461 95.9994 464.352 96.8484C464.352 96.8484 462.766 102.261 465.304 102.579C467.736 102.897 480.742 110.326 479.79 120.62C479.79 120.62 483.386 118.604 483.386 115.314C483.386 112.024 483.809 109.477 486.981 108.204C490.153 106.93 494.7 107.673 493.854 114.041C492.902 120.514 491.739 125.927 485.5 129.217C485.5 129.217 491.739 164.45 495.546 166.148C495.546 166.148 503.159 179.095 491.528 184.083C479.79 189.071 463.189 189.496 460.863 182.173C460.863 182.173 461.18 169.544 460.334 167.634C460.334 167.634 449.654 167.952 442.358 157.127C434.85 146.197 429.14 131.976 429.563 129.217Z" fill="#F5F5FC" stroke="black" stroke-width="2.54" stroke-miterlimit="10"/>
<path d="M446.059 124.229C446.059 124.229 450.077 133.78 450.077 139.723C450.077 145.666 450.394 146.09 458.007 143.65" stroke="black" stroke-width="1.6933" stroke-miterlimit="10" stroke-linecap="round"/>
<path d="M462.131 153.944C456.21 156.491 451.028 151.821 451.028 151.821L466.678 144.923C466.678 144.923 466.149 152.246 462.131 153.944Z" fill="#21233E"/>
<path d="M453.461 119.771C453.461 119.771 458.431 111.388 468.159 116.057" stroke="black" stroke-width="1.6933" stroke-miterlimit="10" stroke-linecap="round"/>
<path d="M442.041 123.592C442.041 123.592 438.022 119.559 430.515 127.412" stroke="black" stroke-width="1.6933" stroke-miterlimit="10" stroke-linecap="round"/>
<path d="M462.026 125.864C463.247 125.303 463.686 123.638 463.006 122.146C462.325 120.654 460.784 119.898 459.562 120.459C458.341 121.02 457.902 122.684 458.582 124.177C459.263 125.669 460.804 126.425 462.026 125.864Z" fill="#21233E"/>
<path d="M440.55 132.252C441.718 131.716 442.114 130.071 441.433 128.579C440.753 127.086 439.255 126.311 438.086 126.848C436.918 127.384 436.522 129.029 437.202 130.521C437.883 132.014 439.381 132.789 440.55 132.252Z" fill="#21233E"/>
<path d="M479.791 148.107C479.791 148.107 476.724 168.058 460.123 167.528" stroke="black" stroke-width="2.54" stroke-miterlimit="10" stroke-linecap="round"/>
</svg>
