<svg width="47" height="24" viewBox="0 0 47 24" fill="none" xmlns="http://www.w3.org/2000/svg">
<path d="M7.68033 10.56C9.8011 10.56 11.5203 8.84077 11.5203 6.72C11.5203 4.59923 9.8011 2.88 7.68033 2.88C5.55956 2.88 3.84033 4.59923 3.84033 6.72C3.84033 8.84077 5.55956 10.56 7.68033 10.56Z" fill="#BDBDBD"/>
<path d="M12.8064 13.248C10.8672 14.7072 9.59999 17.0496 9.59999 19.68V20.16H1.44C0.6528 20.16 0 19.5072 0 18.72V17.76C0 14.8416 2.3616 12.48 5.28 12.48H10.08C11.0784 12.48 12.0192 12.768 12.8064 13.248Z" fill="#BDBDBD"/>
<path d="M38.4001 10.56C40.5208 10.56 42.24 8.84077 42.24 6.72C42.24 4.59923 40.5208 2.88 38.4001 2.88C36.2793 2.88 34.5601 4.59923 34.5601 6.72C34.5601 8.84077 36.2793 10.56 38.4001 10.56Z" fill="#BDBDBD"/>
<path d="M46.0803 17.76V18.72C46.0803 19.5072 45.4275 20.16 44.6403 20.16H36.4803V19.68C36.4803 17.0496 35.2131 14.7072 33.2739 13.248C34.0611 12.768 35.0019 12.48 36.0003 12.48H40.8003C43.7187 12.48 46.0803 14.8416 46.0803 17.76Z" fill="#BDBDBD"/>
<path d="M23.0403 11.52C26.2214 11.52 28.8003 8.94115 28.8003 5.76C28.8003 2.57884 26.2214 0 23.0403 0C19.8591 0 17.2803 2.57884 17.2803 5.76C17.2803 8.94115 19.8591 11.52 23.0403 11.52Z" fill="#BDBDBD"/>
<path d="M28.32 14.4H17.76C14.8473 14.4 12.48 16.7674 12.48 19.68V22.56C12.48 23.3549 13.1251 24 13.92 24H32.16C32.9548 24 33.6 23.3549 33.6 22.56V19.68C33.6 16.7674 31.2326 14.4 28.32 14.4Z" fill="#BDBDBD"/>
</svg>
